# xmcd
#
# Track frame offsets:
#	150
#	14693
#	48621
#	75114
#	90052
#	111374
#	138628
#	170855
#	204369
#	221748
#	240240
#	254342
#	266530
#	284478
#	297783
#
# Disc length: 4256
#
# Revision: 1
# Processed by: cddbd v1.5.1PL0 Copyright (c) Steve Scherf et al.
# Submitted via: CDex 1.51
# Normalized: r0:TDELIM( - ),TSWAP
#
DISCID=d7109e0f
DTITLE=Various Artist - Midnight Jazz
DYEAR=2004
DGENRE=Jazz
TTITLE0=Nat King Cole Trio - Moonlight in Vermont
TTITLE1=Dexter Gordon - Darn that Dream
TTITLE2=Donald Byrd - I got it bad and that ain't good
TTITLE3=Lou Donaldson - Down Home
TTITLE4=Lou Rawls - Willow weep for me
TTITLE5=Art Pepper - Blues in
TTITLE6=Grant Green - If I had you
TTITLE7=Ike Quebec - Blue and Sentimental
TTITLE8=Sarah Vaughan - Sophisticated Lady
TTITLE9=Cannonball Adderley - Dancing in the dark
TTITLE10=Georges Shearing with Nancy Wilson - All night long
TTITLE11=Kenny Burrell - Soul Lament
TTITLE12=stanley Turrentine - God bless the child
TTITLE13=Coleman Hawkins - April in Paris
TTITLE14=Sidney Bechet - Days Beyond Recall
EXTD=YEAR: 2004
EXTT0=
EXTT1=
EXTT2=
EXTT3=
EXTT4=
EXTT5=
EXTT6=
EXTT7=
EXTT8=
EXTT9=
EXTT10=
EXTT11=
EXTT12=
EXTT13=
EXTT14=
PLAYORDER=
